<svg version="1.1" id="Capa_1" xmlns="http://www.w3.org/2000/svg" x="0" y="0" viewBox="0 0 220 33.5" xml:space="preserve"><style>.st0{fill:#0160a1}</style><path class="st0" d="M5026.4 6902.9h-7.8c-.4 0-.7.3-.8.7l-1.4 5.7-4.1-15.6c0-.4-1.5-.6-2.8-.5-1.4-.1-2.8.2-2.8.5l-4.2 15.6-4.2-15.6c0-.8-4.8-.8-4.8 0l6.1 23.3c.1.3 1.4.5 2.5.5 1.3 0 2.8-.2 2.9-.5l4.2-15.9 4.2 15.9c.1.4 1.7.5 2.9.5s2.5-.2 2.5-.5l2.5-9.8h4.7l.4-4.3zM5109.8 6917.5c-6 0-10.9-4.9-11-11v-3c0-6 4.9-10.9 11-11h.2c6 0 10.9 4.9 11 11v1.2c0 1.2-.2 2.6-1 2.6h-16.2c.4 3 3 5.3 6 5.3h.9c2.1 0 4.1-1.2 5.2-3 .7-1.1 4.9 1.3 4.2 2.5-2 3.3-5.6 5.4-9.4 5.4h-.9zm0-20.1c-3.1 0-5.7 2.3-6 5.4h12.2c-.4-3.1-3-5.4-6-5.4h-.2zM5144.6 6917.5c-6 0-10.9-4.9-11-11v-3c0-6 4.9-10.9 11-11h.2c6 0 10.9 4.9 11 11v1.2c0 1.2-.2 2.6-1 2.6h-16.2c.4 3 2.9 5.3 6 5.3h.9c2.1 0 4.1-1.2 5.2-3 .7-1.1 4.9 1.3 4.2 2.5-2 3.3-5.6 5.4-9.4 5.4h-.9zm0-20.1c-3.1 0-5.6 2.3-6 5.4h12.2c-.4-3.1-3-5.3-6-5.4h-.2zM5063.3 6894.5c3.2-1.4 6.6-2.1 10.1-2 1.9-.1 3.7.5 5.2 1.6 2.9-1.1 6.1-1.7 9.2-1.6 6 0 9.2 4.9 9.2 11v13.4c0 .8-4.9.8-4.9 0v-13.4c0-3.3-1-6-4.3-6h-.9c-1.5.1-2.9.4-4.3 1v18.4c0 .8-4.9.8-4.9 0v-13.4c0-3.3-1-6-4.3-6h-.9c-1.5.1-2.9.4-4.3 1v18.4c0 .8-4.9.8-4.9 0v-22.4z" transform="translate(-4950 -6884)"/><path class="st0" d="M5124 6897.1h-3.2c-.8 0-.8-4.5 0-4.5h3.2v-6.6c0-.7 4.9-.7 4.9 0v6.6h4.5c.8 0 .8 4.5 0 4.5h-4.5v13.7c0 2 1.6 1.8 3.6 1.8h1c.8 0 .8 4.9 0 4.9h-1c-5.4 0-8.5-.8-8.5-6.3v-14.1zM5157.3 6894.5c3.8-1.8 8.1-2.4 12.2-1.7 1.2.3-.2 4.9-1.1 4.8-.4-.1-.8-.1-1.1-.1h-.8c-1.5 0-2.9.4-4.3 1v18.4c0 .8-4.9.8-4.9 0v-22.4zM5036.5 6917.5c-6 0-10.9-4.9-11-11v-3c0-6 4.9-10.9 11-11h.2c6 0 10.9 4.9 11 11v1.2c0 1.2-.2 2.6-1 2.6h-16.2c.4 3 3 5.3 6 5.3h.9c2.1 0 4.1-1.2 5.2-3 .7-1.1 4.9 1.3 4.2 2.5-2 3.3-5.6 5.4-9.4 5.4h-.9zm0-20.1c-3.1 0-5.7 2.3-6 5.4h12.2c-.3-3.1-2.9-5.4-6-5.4h-.2zM4971.8 6903.5c0-6 4.9-10.9 11-11h.8c6 0 10.9 4.9 11 11v3c0 6-4.9 10.9-11 11h-.8c-6 0-10.9-4.9-11-11v-3zm17.8 0c0-3.3-2.7-6-6-6h-.8c-3.3 0-6 2.7-6 6v3.1c0 3.3 2.7 6 6 6h.8c3.3 0 6-2.7 6-6v-3.1zM4950 6884.5c0-.2 1.1-.5 2.4-.5h10c5.6.2 10.1 4.8 10.3 10.4-.2 5.6-4.7 10.1-10.3 10.2h-7.5v11.7c0 .6-5 .6-5 0l.1-31.8zm5 4.4v11.2h7.5c3 0 5.3-3.3 5.3-5.7 0-2.4-2.3-5.5-5.3-5.5h-7.5zM5049.9 6894.5c3.8-1.8 8.1-2.4 12.2-1.7 1.2.3-.2 4.9-1.1 4.8-.4-.1-.8-.1-1.1-.1h-.8c-1.5 0-2.9.4-4.3 1v18.4c0 .8-4.9.8-4.9 0v-22.4z" transform="translate(-4950 -6884)"/></svg>